<?xml version="1.0" encoding="utf-8"?>
<!-- Generator: Adobe Illustrator 26.0.1, SVG Export Plug-In . SVG Version: 6.00 Build 0)  -->
<svg version="1.1" id="Layer_1" xmlns="http://www.w3.org/2000/svg" xmlns:xlink="http://www.w3.org/1999/xlink" x="0px" y="0px"
	 viewBox="0 0 1920 1080" style="enable-background:new 0 0 1920 1080;" xml:space="preserve">
<style type="text/css">
	.st0{clip-path:url(#SVGID_00000026130814791368191330000016597474073874000305_);}
	.st1{fill:#8C8C8C;}
	.st2{fill:#FFEF1F;}
	.st3{clip-path:url(#SVGID_00000114048261243533903340000000907939358514681253_);}
	.st4{fill:#E3E3E3;}
	.st5{clip-path:url(#SVGID_00000042731885414244139260000004981935441219759527_);}
	.st6{clip-path:url(#SVGID_00000144307500089468286910000011766161039559052422_);}
	.st7{fill:#357FFF;}
</style>
<g>
	<defs>
		<rect id="SVGID_1_" x="159.18" y="131.01" width="150" height="98.98"/>
	</defs>
	<clipPath id="SVGID_00000093894415252719514770000003271458640890116757_">
		<use xlink:href="#SVGID_1_"  style="overflow:visible;"/>
	</clipPath>
	<g style="clip-path:url(#SVGID_00000093894415252719514770000003271458640890116757_);">
		<path class="st1" d="M299,165.06c-2.21-0.02-4.38,0.62-6.23,1.83c-1.71-7.71-9.6-13.54-19.07-13.54h-0.39
			c-2.36-12.66-15.13-22.35-30.55-22.35c-15.23,0-27.88,9.46-30.46,21.89c-3.95-3.76-9.21-5.83-14.67-5.75
			c-10.72,0-19.41,7.46-19.41,16.67c0,0.12,0,0.23,0,0.35c-1.17-0.23-2.35-0.35-3.54-0.35c-8.55,0-15.49,5.95-15.49,13.29
			c0,7.34,6.93,13.3,15.49,13.3c3.09,0.02,6.12-0.79,8.79-2.34c2.08,7.75,10.18,13.53,19.83,13.53c2.9,0.04,5.78-0.49,8.46-1.57
			c2.69-1.08,5.13-2.69,7.19-4.73c3.64,4.6,9.83,7.62,16.81,7.62c8.42,0,15.65-4.36,18.75-10.64c2.53,1.36,5.35,2.06,8.22,2.05
			c5.57,0,10.45-2.55,13.14-6.36c1.78,3.78,6.08,6.45,11.12,6.45c6.62,0,11.99-4.61,11.99-10.29c0-0.51-0.05-1.03-0.14-1.53h0.14
			c5.64,0,10.18-3.92,10.18-8.73C309.17,169.04,304.61,165.06,299,165.06z"/>
		<path class="st2" d="M263.74,189.05l15.98-26.87l-17.23,4.71l-11.52,24.37l5.49-1.5l-9.6,21.13l4.79-1.31l-9.65,20.41l17.47-21.27
			l-3.55,0.97l12.75-21.98L263.74,189.05z"/>
		<path class="st2" d="M210.87,190.99l11.28-20.92l-11.77,3.9l-8.21,18.93l3.75-1.24l-6.86,16.4l3.27-1.08l-6.88,15.86l12.21-16.64
			l-2.42,0.8l9.01-17.11L210.87,190.99z"/>
	</g>
</g>
<path class="st2" d="M461.18,220.49c27.61,0,50-22.39,50-50s-22.39-50-50-50s-50,22.39-50,50S433.57,220.49,461.18,220.49z"/>
<g>
	<defs>
		<rect id="SVGID_00000111891982247754134100000003007927382452531593_" x="629.18" y="129.84" width="150" height="81.27"/>
	</defs>
	<clipPath id="SVGID_00000149359761657342868110000018384261587276429214_">
		<use xlink:href="#SVGID_00000111891982247754134100000003007927382452531593_"  style="overflow:visible;"/>
	</clipPath>
	<g style="clip-path:url(#SVGID_00000149359761657342868110000018384261587276429214_);">
		<path class="st4" d="M774.33,183.68c1.47-1.02,2.68-2.37,3.53-3.95s1.3-3.33,1.33-5.12c0-6.46-5.89-11.69-13.16-11.69
			c-0.55,0-1.11,0.03-1.66,0.09c0.33-1.19,0.49-2.41,0.49-3.64c0-8.41-7.67-15.23-17.14-15.23c-2.71-0.01-5.39,0.57-7.86,1.69
			c-5.54-9.5-16.69-16-29.56-16c-14.44,0-26.72,8.17-31.32,19.58c-3.96-2.95-8.77-4.52-13.71-4.49c-11.69,0-21.13,8.41-21.13,18.77
			c0,0.8,0.06,1.61,0.18,2.4c-0.73-0.11-1.46-0.16-2.2-0.16c-7.14,0-12.94,5.14-12.94,11.49s5.8,11.49,12.94,11.49
			c1.47,0,2.92-0.22,4.32-0.66c1.05,5.56,6.5,9.81,13.06,9.81c3.25,0.02,6.4-1.08,8.94-3.12c2.89,8.06,11.38,13.9,21.41,13.9
			c5.87,0.06,11.56-2.05,15.98-5.93c1.27,1.86,2.99,3.38,5,4.42c2.01,1.03,4.24,1.55,6.5,1.51c1.84,0.02,3.66-0.32,5.36-1.01
			c1.7-0.69,3.26-1.7,4.57-2.99c4.45,4.06,10.27,6.29,16.3,6.23c12.01,0,21.81-8.37,22.44-18.91c0.65,0.82,1.48,1.47,2.43,1.92
			c0.95,0.44,1.98,0.67,3.02,0.65c3.64,0,6.58-2.62,6.58-5.84c-0.04-1.14-0.41-2.24-1.07-3.16
			C776.3,184.81,775.39,184.09,774.33,183.68z"/>
	</g>
</g>
<g>
	<defs>
		<rect id="SVGID_00000113324590100853914070000002071672263111220921_" x="877.01" y="113.59" width="150" height="113.76"/>
	</defs>
	<clipPath id="SVGID_00000052072684332569045450000008387545244748965535_">
		<use xlink:href="#SVGID_00000113324590100853914070000002071672263111220921_"  style="overflow:visible;"/>
	</clipPath>
	<g style="clip-path:url(#SVGID_00000052072684332569045450000008387545244748965535_);">
		<path class="st2" d="M930.92,221.41c29.77,0,53.91-24.14,53.91-53.91c0-29.77-24.14-53.91-53.91-53.91
			c-29.77,0-53.91,24.14-53.91,53.91C877.01,197.27,901.14,221.41,930.92,221.41z"/>
		<path class="st4" d="M1016.24,205.73c-0.28,0-0.56,0-0.85,0v-0.26c0-4.04-1.46-7.93-4.11-10.97c-2.65-3.04-6.32-5.01-10.32-5.56
			v-0.15c0-0.92-0.36-1.8-1.01-2.45c-0.65-0.65-1.53-1.02-2.44-1.02c-0.46,0-0.92,0.09-1.35,0.27c-2.13-4.15-5.46-7.56-9.55-9.78
			s-8.77-3.17-13.4-2.71c-4.64,0.46-9.03,2.32-12.6,5.31c-3.57,3-6.16,7-7.42,11.48c-1.71-0.55-3.54-0.57-5.26-0.07
			c-1.72,0.5-3.25,1.51-4.4,2.89c-1.15,1.38-1.85,3.07-2.03,4.85c-0.18,1.78,0.18,3.58,1.03,5.16c-1.62,0.02-3.21,0.36-4.7,0.99
			c-1.49,0.64-2.83,1.56-3.96,2.72c-2.28,2.34-3.54,5.48-3.5,8.75c0.04,3.26,1.37,6.38,3.71,8.66c2.34,2.28,5.48,3.54,8.75,3.5
			h73.43c1.45,0.04,2.88-0.21,4.23-0.74c1.35-0.53,2.58-1.32,3.61-2.32c1.04-1.01,1.86-2.21,2.42-3.54s0.85-2.76,0.85-4.21
			s-0.29-2.88-0.85-4.21c-0.56-1.33-1.39-2.54-2.42-3.55c-1.04-1.01-2.27-1.8-3.61-2.32
			C1019.12,205.94,1017.68,205.69,1016.24,205.73z"/>
	</g>
</g>
<g>
	<defs>
		<rect id="SVGID_00000054264753206269448360000015125028279272375939_" x="1125.2" y="111.4" width="150" height="118.19"/>
	</defs>
	<clipPath id="SVGID_00000175307865459465465380000013361657564867716761_">
		<use xlink:href="#SVGID_00000054264753206269448360000015125028279272375939_"  style="overflow:visible;"/>
	</clipPath>
	<g style="clip-path:url(#SVGID_00000175307865459465465380000013361657564867716761_);">
		<path class="st4" d="M1270.35,164.89c1.47-1,2.68-2.34,3.52-3.91c0.84-1.57,1.3-3.31,1.33-5.09c0-6.41-5.89-11.62-13.16-11.62
			c-0.55,0-1.11,0.03-1.66,0.1c0.32-1.18,0.49-2.39,0.49-3.62c0-8.36-7.68-15.13-17.15-15.13c-2.71-0.02-5.39,0.55-7.86,1.66
			c-5.52-9.45-16.68-15.88-29.56-15.88c-14.44,0-26.72,8.12-31.32,19.47c-3.96-2.94-8.77-4.51-13.71-4.47
			c-11.67,0-21.17,8.35-21.17,18.65c0,0.8,0.06,1.6,0.18,2.39c-0.72-0.11-1.45-0.17-2.19-0.17c-7.14,0-12.94,5.11-12.94,11.47
			c0,6.36,5.79,11.41,12.94,11.41c1.47,0,2.92-0.22,4.32-0.65c1.05,5.53,6.49,9.7,13.05,9.7c3.24,0.03,6.39-1.05,8.93-3.06
			c2.89,8.01,11.38,13.81,21.41,13.81c5.87,0.06,11.55-2.04,15.97-5.89c1.28,1.85,2.99,3.36,4.99,4.39c2,1.03,4.23,1.54,6.47,1.5
			c3.71,0.05,7.28-1.38,9.94-3.97c4.46,4.04,10.28,6.24,16.3,6.17c12.01,0,21.83-8.32,22.44-18.79c0.66,0.81,1.49,1.46,2.43,1.9
			c0.94,0.44,1.98,0.66,3.02,0.65c3.63,0,6.58-2.65,6.58-5.81c-0.04-1.13-0.4-2.22-1.04-3.14
			C1272.29,166.03,1271.39,165.32,1270.35,164.89z"/>
		<path class="st7" d="M1147.31,188.57c-0.09,0-0.44-0.42-0.44-1.32v-7.94c0-0.88,0.35-1.32,0.44-1.32c0.09,0,0.44,0.42,0.44,1.32
			v7.94C1147.75,188.13,1147.4,188.57,1147.31,188.57z"/>
		<path class="st7" d="M1147.31,177.55c-0.49,0-0.88,0.79-0.88,1.76v7.94c0,0.97,0.4,1.76,0.88,1.76s0.88-0.79,0.88-1.76v-7.94
			C1148.19,178.34,1147.8,177.55,1147.31,177.55z"/>
		<path class="st7" d="M1243.45,207.1c-0.09,0-0.44-0.42-0.44-1.32v-7.94c0-0.88,0.35-1.32,0.44-1.32c0.09,0,0.44,0.42,0.44,1.32
			v7.94C1243.89,206.65,1243.54,207.1,1243.45,207.1z"/>
		<path class="st7" d="M1243.45,196.07c-0.49,0-0.88,0.79-0.88,1.76v7.94c0,0.97,0.4,1.76,0.88,1.76c0.48,0,0.88-0.79,0.88-1.76
			v-7.94C1244.33,196.86,1243.93,196.07,1243.45,196.07z"/>
		<path class="st7" d="M1213.46,222.09c-0.09,0-0.44-0.42-0.44-1.32v-7.94c0-0.88,0.35-1.32,0.44-1.32c0.09,0,0.44,0.42,0.44,1.32
			v7.94C1213.9,221.65,1213.55,222.09,1213.46,222.09z"/>
		<path class="st7" d="M1213.46,211.06c-0.49,0-0.88,0.79-0.88,1.76v7.94c0,0.97,0.4,1.76,0.88,1.76s0.88-0.79,0.88-1.76v-7.94
			C1214.34,211.86,1213.95,211.06,1213.46,211.06z"/>
		<path class="st7" d="M1222.28,203.57c-0.09,0-0.44-0.42-0.44-1.32v-7.94c0-0.88,0.35-1.32,0.44-1.32c0.09,0,0.44,0.42,0.44,1.32
			v7.94C1222.72,203.13,1222.37,203.57,1222.28,203.57z"/>
		<path class="st7" d="M1222.28,192.54c-0.49,0-0.88,0.79-0.88,1.76v7.94c0,0.97,0.4,1.76,0.88,1.76s0.88-0.79,0.88-1.76v-7.94
			C1223.16,193.34,1222.77,192.54,1222.28,192.54z"/>
		<path class="st7" d="M1187.88,222.09c-0.09,0-0.44-0.42-0.44-1.32v-7.94c0-0.88,0.35-1.32,0.44-1.32c0.09,0,0.44,0.42,0.44,1.32
			v7.94C1188.32,221.65,1187.97,222.09,1187.88,222.09z"/>
		<path class="st7" d="M1187.88,211.06c-0.49,0-0.88,0.79-0.88,1.76v7.94c0,0.97,0.4,1.76,0.88,1.76s0.88-0.79,0.88-1.76v-7.94
			C1188.76,211.86,1188.37,211.06,1187.88,211.06z"/>
		<path class="st7" d="M1163.19,194.75c-0.09,0-0.44-0.42-0.44-1.32v-7.94c0-0.88,0.35-1.32,0.44-1.32c0.09,0,0.44,0.42,0.44,1.32
			v7.94C1163.63,194.31,1163.27,194.75,1163.19,194.75z"/>
		<path class="st7" d="M1163.19,183.72c-0.49,0-0.88,0.79-0.88,1.76v7.94c0,0.97,0.4,1.76,0.88,1.76s0.88-0.79,0.88-1.76v-7.94
			C1164.07,184.52,1163.67,183.72,1163.19,183.72z"/>
		<path class="st7" d="M1200.23,203.57c-0.09,0-0.44-0.42-0.44-1.32v-7.94c0-0.88,0.35-1.32,0.44-1.32c0.09,0,0.44,0.42,0.44,1.32
			v7.94C1200.67,203.13,1200.32,203.57,1200.23,203.57z"/>
		<path class="st7" d="M1200.23,192.54c-0.49,0-0.88,0.79-0.88,1.76v7.94c0,0.97,0.4,1.76,0.88,1.76c0.48,0,0.88-0.79,0.88-1.76
			v-7.94C1201.11,193.34,1200.72,192.54,1200.23,192.54z"/>
		<path class="st7" d="M1171.12,215.03c-0.09,0-0.44-0.42-0.44-1.32v-7.94c0-0.88,0.35-1.32,0.44-1.32c0.09,0,0.44,0.42,0.44,1.32
			v7.94C1171.57,214.59,1171.21,215.03,1171.12,215.03z"/>
		<path class="st7" d="M1171.12,204.01c-0.49,0-0.88,0.79-0.88,1.76v7.94c0,0.97,0.4,1.76,0.88,1.76s0.88-0.79,0.88-1.76v-7.94
			C1172.01,204.8,1171.61,204.01,1171.12,204.01z"/>
		<path class="st7" d="M1235.51,228.26c-0.09,0-0.44-0.42-0.44-1.32V219c0-0.88,0.35-1.32,0.44-1.32c0.09,0,0.44,0.42,0.44,1.32
			v7.94C1235.95,227.82,1235.6,228.26,1235.51,228.26z"/>
		<path class="st7" d="M1235.51,217.24c-0.48,0-0.88,0.79-0.88,1.76v7.94c0,0.97,0.4,1.76,0.88,1.76c0.49,0,0.88-0.79,0.88-1.76V219
			C1236.39,218.03,1236,217.24,1235.51,217.24z"/>
		<path class="st7" d="M1254.91,229.15c-0.09,0-0.44-0.42-0.44-1.32v-7.94c0-0.88,0.35-1.32,0.44-1.32s0.44,0.42,0.44,1.32v7.94
			C1255.35,228.71,1255,229.15,1254.91,229.15z"/>
		<path class="st7" d="M1254.91,218.12c-0.48,0-0.88,0.79-0.88,1.76v7.94c0,0.97,0.4,1.76,0.88,1.76s0.88-0.79,0.88-1.76v-7.94
			C1255.8,218.92,1255.4,218.12,1254.91,218.12z"/>
		<path class="st7" d="M1261.09,201.8c-0.09,0-0.44-0.42-0.44-1.32v-7.94c0-0.88,0.35-1.32,0.44-1.32c0.09,0,0.44,0.42,0.44,1.32
			v7.94C1261.53,201.36,1261.18,201.8,1261.09,201.8z"/>
		<path class="st7" d="M1261.09,190.78c-0.48,0-0.88,0.79-0.88,1.76v7.94c0,0.97,0.4,1.76,0.88,1.76c0.49,0,0.88-0.79,0.88-1.76
			v-7.94C1261.97,191.57,1261.57,190.78,1261.09,190.78z"/>
		<path class="st7" d="M1181.71,200.92c-0.09,0-0.44-0.42-0.44-1.32v-7.94c0-0.88,0.35-1.32,0.44-1.32c0.09,0,0.44,0.42,0.44,1.32
			v7.94C1182.15,200.48,1181.8,200.92,1181.71,200.92z"/>
		<path class="st7" d="M1181.71,189.9c-0.49,0-0.88,0.79-0.88,1.76v7.94c0,0.97,0.4,1.76,0.88,1.76c0.48,0,0.88-0.79,0.88-1.76
			v-7.94C1182.59,190.69,1182.19,189.9,1181.71,189.9z"/>
		<path class="st7" d="M1149.07,212.39c-0.09,0-0.44-0.42-0.44-1.32v-7.94c0-0.88,0.35-1.32,0.44-1.32c0.09,0,0.44,0.42,0.44,1.32
			v7.94C1149.52,211.95,1149.16,212.39,1149.07,212.39z"/>
		<path class="st7" d="M1149.07,201.36c-0.49,0-0.88,0.79-0.88,1.76v7.94c0,0.97,0.4,1.76,0.88,1.76s0.88-0.79,0.88-1.76v-7.94
			C1149.96,202.16,1149.56,201.36,1149.07,201.36z"/>
	</g>
</g>
</svg>
