<svg xmlns="http://www.w3.org/2000/svg" xmlns:xlink="http://www.w3.org/1999/xlink" viewBox="0 0 150 81.24"><defs><style>.cls-1{fill:none;}.cls-2{clip-path:url(#clip-path);}.cls-3{fill:#e3e3e3;}</style><clipPath id="clip-path" transform="translate(0)"><rect class="cls-1" width="150" height="81.27"/></clipPath></defs><g id="Layer_2" data-name="Layer 2"><g id="Layer_1-2" data-name="Layer 1"><g class="cls-2"><path class="cls-3" d="M145.15,53.84A11.27,11.27,0,0,0,150,44.77c0-6.46-5.89-11.69-13.16-11.69a15.4,15.4,0,0,0-1.66.1,13.59,13.59,0,0,0,.49-3.64c0-8.41-7.67-15.23-17.13-15.23A18.8,18.8,0,0,0,110.68,16C105.14,6.5,94,0,81.11,0,66.68,0,54.39,8.17,49.79,19.58A22.69,22.69,0,0,0,36.08,15.1C24.4,15.1,15,23.5,15,33.86a16,16,0,0,0,.18,2.4,14.8,14.8,0,0,0-2.2-.16C5.8,36.1,0,41.24,0,47.59S5.8,59.08,12.94,59.08a14.37,14.37,0,0,0,4.32-.66c1,5.56,6.5,9.81,13.06,9.81a14.19,14.19,0,0,0,8.93-3.12C42.14,73.17,50.64,79,60.66,79a23.89,23.89,0,0,0,16-5.93A13.6,13.6,0,0,0,88.14,79a14,14,0,0,0,9.93-4,23.78,23.78,0,0,0,16.3,6.23c12,0,21.81-8.37,22.44-18.9a6.86,6.86,0,0,0,5.45,2.56c3.64,0,6.59-2.62,6.59-5.84a5.9,5.9,0,0,0-1.07-3.17A5.84,5.84,0,0,0,145.15,53.84Z" transform="translate(0)"/></g></g></g></svg>