<svg xmlns="http://www.w3.org/2000/svg" xmlns:xlink="http://www.w3.org/1999/xlink" viewBox="0 0 150.35 113.76"><defs><style>.cls-1{fill:none;}.cls-2{clip-path:url(#clip-path);}.cls-3{fill:#ffef1f;}.cls-4{fill:#e3e3e3;}</style><clipPath id="clip-path"><rect class="cls-1" width="150" height="113.76"/></clipPath></defs><g id="Layer_2" data-name="Layer 2"><g id="Layer_1-2" data-name="Layer 1"><g class="cls-2"><path class="cls-3" d="M53.91,107.82A53.91,53.91,0,1,0,0,53.91,53.91,53.91,0,0,0,53.91,107.82Z"/><path class="cls-4" d="M139.23,92.14h-.85v-.27A16.7,16.7,0,0,0,124,75.34v-.15a3.47,3.47,0,0,0-3.46-3.46,3.32,3.32,0,0,0-1.35.27,23.2,23.2,0,0,0-43,4.3A9,9,0,0,0,64.47,84a9.07,9.07,0,0,0,1,5.16,12.26,12.26,0,0,0-8.66,3.71,12.32,12.32,0,0,0,9,20.91h73.44a10.82,10.82,0,0,0,7.84-18.57,11.11,11.11,0,0,0-3.61-2.32A10.94,10.94,0,0,0,139.23,92.14Z"/></g></g></g></svg>