<svg xmlns="http://www.w3.org/2000/svg" xmlns:xlink="http://www.w3.org/1999/xlink" viewBox="0 0 150.04 118.19"><defs><style>.cls-1{fill:none;}.cls-2{clip-path:url(#clip-path);}.cls-3{fill:#e3e3e3;}.cls-4{fill:#357fff;}</style><clipPath id="clip-path" transform="translate(0.04)"><rect class="cls-1" width="150" height="118.19"/></clipPath></defs><g id="Layer_2" data-name="Layer 2"><g id="Layer_1-2" data-name="Layer 1"><g class="cls-2"><path class="cls-3" d="M145.15,53.49a11.13,11.13,0,0,0,4.85-9c0-6.41-5.89-11.62-13.16-11.62a13.21,13.21,0,0,0-1.66.1,13.87,13.87,0,0,0,.5-3.62c0-8.36-7.69-15.13-17.16-15.13a18.84,18.84,0,0,0-7.86,1.66C105.14,6.43,94,0,81.11,0,66.67,0,54.39,8.12,49.79,19.47A22.8,22.8,0,0,0,36.08,15c-11.67,0-21.17,8.36-21.17,18.65A17.36,17.36,0,0,0,15.09,36a14.48,14.48,0,0,0-2.19-.17C5.76,35.86,0,41,0,47.33S5.76,58.74,12.9,58.74a14.75,14.75,0,0,0,4.33-.65c1,5.53,6.49,9.7,13.05,9.7a14.18,14.18,0,0,0,8.93-3.06c2.9,8,11.38,13.81,21.42,13.81a24,24,0,0,0,16-5.89,13.6,13.6,0,0,0,11.47,5.89,14,14,0,0,0,9.94-4,23.91,23.91,0,0,0,16.3,6.18c12,0,21.82-8.32,22.43-18.79a6.87,6.87,0,0,0,2.44,1.9,6.67,6.67,0,0,0,3,.65c3.64,0,6.58-2.65,6.58-5.81a5.69,5.69,0,0,0-1-3.14A5.82,5.82,0,0,0,145.15,53.49Z" transform="translate(0.04)"/><path class="cls-4" d="M22.11,77.17c-.09,0-.44-.42-.44-1.32V67.91c0-.88.35-1.32.44-1.32s.44.42.44,1.32v7.94C22.55,76.73,22.2,77.17,22.11,77.17Z" transform="translate(0.04)"/><path class="cls-4" d="M22.11,66.15c-.48,0-.88.79-.88,1.76v7.94c0,1,.4,1.77.88,1.77s.88-.8.88-1.77V67.91C23,66.94,22.6,66.15,22.11,66.15Z" transform="translate(0.04)"/><path class="cls-4" d="M118.25,95.7c-.09,0-.44-.43-.44-1.33V86.43c0-.88.35-1.32.44-1.32s.44.43.44,1.32v7.94C118.69,95.25,118.34,95.7,118.25,95.7Z" transform="translate(0.04)"/><path class="cls-4" d="M118.25,84.67c-.49,0-.88.79-.88,1.76v7.94c0,1,.39,1.77.88,1.77s.88-.8.88-1.77V86.43C119.13,85.46,118.73,84.67,118.25,84.67Z" transform="translate(0.04)"/><path class="cls-4" d="M88.26,110.69c-.09,0-.44-.42-.44-1.32v-7.94c0-.88.35-1.32.44-1.32s.44.42.44,1.32v7.94C88.7,110.25,88.35,110.69,88.26,110.69Z" transform="translate(0.04)"/><path class="cls-4" d="M88.26,99.66c-.48,0-.88.8-.88,1.77v7.94c0,1,.4,1.76.88,1.76s.88-.79.88-1.76v-7.94C89.14,100.46,88.75,99.66,88.26,99.66Z" transform="translate(0.04)"/><path class="cls-4" d="M97.08,92.17c-.09,0-.44-.43-.44-1.33V82.91c0-.88.35-1.33.44-1.33s.44.43.44,1.33v7.93C97.52,91.73,97.17,92.17,97.08,92.17Z" transform="translate(0.04)"/><path class="cls-4" d="M97.08,81.14c-.48,0-.88.8-.88,1.77v7.93c0,1,.4,1.77.88,1.77s.88-.79.88-1.77V82.91C98,81.94,97.57,81.14,97.08,81.14Z" transform="translate(0.04)"/><path class="cls-4" d="M62.68,110.69c-.09,0-.44-.42-.44-1.32v-7.94c0-.88.35-1.32.44-1.32s.44.42.44,1.32v7.94C63.12,110.25,62.77,110.69,62.68,110.69Z" transform="translate(0.04)"/><path class="cls-4" d="M62.68,99.66c-.48,0-.88.8-.88,1.77v7.94c0,1,.4,1.76.88,1.76s.88-.79.88-1.76v-7.94C63.56,100.46,63.17,99.66,62.68,99.66Z" transform="translate(0.04)"/><path class="cls-4" d="M38,83.35c-.09,0-.44-.43-.44-1.32V74.09c0-.88.35-1.33.44-1.33s.44.43.44,1.33V82C38.43,82.91,38.08,83.35,38,83.35Z" transform="translate(0.04)"/><path class="cls-4" d="M38,72.32c-.49,0-.88.8-.88,1.77V82c0,1,.39,1.76.88,1.76s.88-.79.88-1.76V74.09C38.87,73.12,38.47,72.32,38,72.32Z" transform="translate(0.04)"/><path class="cls-4" d="M75,92.17c-.09,0-.44-.43-.44-1.33V82.91c0-.88.35-1.33.44-1.33s.44.43.44,1.33v7.93C75.47,91.73,75.12,92.17,75,92.17Z" transform="translate(0.04)"/><path class="cls-4" d="M75,81.14c-.48,0-.88.8-.88,1.77v7.93c0,1,.4,1.77.88,1.77s.88-.79.88-1.77V82.91C75.91,81.94,75.52,81.14,75,81.14Z" transform="translate(0.04)"/><path class="cls-4" d="M45.93,103.63c-.09,0-.45-.42-.45-1.32V94.37c0-.88.36-1.32.45-1.32s.44.42.44,1.32v7.94C46.37,103.19,46,103.63,45.93,103.63Z" transform="translate(0.04)"/><path class="cls-4" d="M45.93,92.61c-.49,0-.89.79-.89,1.76v7.94c0,1,.4,1.76.89,1.76s.88-.79.88-1.76V94.37C46.81,93.4,46.41,92.61,45.93,92.61Z" transform="translate(0.04)"/><path class="cls-4" d="M110.31,116.86c-.09,0-.44-.42-.44-1.32V107.6c0-.88.35-1.32.44-1.32s.44.42.44,1.32v7.94C110.75,116.42,110.4,116.86,110.31,116.86Z" transform="translate(0.04)"/><path class="cls-4" d="M110.31,105.84c-.49,0-.88.79-.88,1.76v7.94c0,1,.39,1.77.88,1.77s.88-.8.88-1.77V107.6C111.19,106.63,110.8,105.84,110.31,105.84Z" transform="translate(0.04)"/><path class="cls-4" d="M129.71,117.75c-.08,0-.44-.43-.44-1.33v-7.93c0-.89.36-1.33.44-1.33s.44.42.44,1.33v7.93C130.15,117.31,129.8,117.75,129.71,117.75Z" transform="translate(0.04)"/><path class="cls-4" d="M129.71,106.72c-.48,0-.88.79-.88,1.77v7.93c0,1,.4,1.77.88,1.77s.89-.8.89-1.77v-7.93C130.6,107.51,130.2,106.72,129.71,106.72Z" transform="translate(0.04)"/><path class="cls-4" d="M135.89,90.4c-.09,0-.44-.42-.44-1.32V81.14c0-.88.35-1.32.44-1.32s.44.42.44,1.32v7.94C136.33,90,136,90.4,135.89,90.4Z" transform="translate(0.04)"/><path class="cls-4" d="M135.89,79.38c-.49,0-.88.79-.88,1.76v7.94c0,1,.39,1.76.88,1.76s.88-.79.88-1.76V81.14C136.77,80.17,136.37,79.38,135.89,79.38Z" transform="translate(0.04)"/><path class="cls-4" d="M56.51,89.52c-.09,0-.44-.42-.44-1.32V80.26c0-.88.35-1.32.44-1.32s.44.42.44,1.32V88.2C57,89.08,56.6,89.52,56.51,89.52Z" transform="translate(0.04)"/><path class="cls-4" d="M56.51,78.5c-.49,0-.88.79-.88,1.76V88.2c0,1,.39,1.76.88,1.76s.88-.79.88-1.76V80.26C57.39,79.29,57,78.5,56.51,78.5Z" transform="translate(0.04)"/><path class="cls-4" d="M23.88,101c-.09,0-.45-.43-.45-1.33V91.73c0-.89.36-1.33.45-1.33s.44.43.44,1.33v7.93C24.32,100.55,24,101,23.88,101Z" transform="translate(0.04)"/><path class="cls-4" d="M23.88,90c-.49,0-.89.8-.89,1.77v7.93c0,1,.4,1.77.89,1.77s.88-.79.88-1.77V91.73C24.76,90.76,24.36,90,23.88,90Z" transform="translate(0.04)"/></g></g></g></svg>