<svg xmlns="http://www.w3.org/2000/svg" xmlns:xlink="http://www.w3.org/1999/xlink" viewBox="0 0 149.98 98.98"><defs><style>.cls-1{fill:none;}.cls-2{clip-path:url(#clip-path);}.cls-3{fill:#8c8c8c;}.cls-4{fill:#ffef1f;}</style><clipPath id="clip-path" transform="translate(-0.01 0.01)"><rect class="cls-1" width="150" height="98.98"/></clipPath></defs><g id="Layer_2" data-name="Layer 2"><g id="Layer_1-2" data-name="Layer 1"><g class="cls-2"><path class="cls-3" d="M139.82,34.05a11.32,11.32,0,0,0-6.24,1.83c-1.71-7.71-9.59-13.54-19.07-13.54h-.39C111.76,9.68,99,0,83.57,0,68.34,0,55.69,9.45,53.11,21.88a20.87,20.87,0,0,0-14.66-5.75C27.72,16.13,19,23.59,19,32.8v.35a18.42,18.42,0,0,0-3.55-.35C6.94,32.8,0,38.75,0,46.09s6.93,13.3,15.48,13.3a17.25,17.25,0,0,0,8.79-2.34c2.08,7.74,10.19,13.53,19.83,13.53a21.81,21.81,0,0,0,15.66-6.31,21.38,21.38,0,0,0,16.81,7.62c8.42,0,15.65-4.36,18.74-10.64a17.13,17.13,0,0,0,8.22,2,16,16,0,0,0,13.14-6.36c1.78,3.79,6.08,6.46,11.13,6.46,6.62,0,12-4.61,12-10.3a8.8,8.8,0,0,0-.14-1.53h.14c5.64,0,10.19-3.92,10.19-8.73S145.43,34.05,139.82,34.05Z" transform="translate(-0.01 0.01)"/><path class="cls-4" d="M104.56,58l16-26.87-17.23,4.71L91.79,60.25l5.48-1.5-9.6,21.12,4.79-1.31L82.81,99l17.48-21.27-3.55,1,12.75-22Z" transform="translate(-0.01 0.01)"/><path class="cls-4" d="M51.69,60,63,39.06,51.21,43,43,61.88l3.75-1.23L39.88,77,43.15,76,36.26,91.82,48.47,75.17l-2.42.8,9-17.1Z" transform="translate(-0.01 0.01)"/></g></g></g></svg>