<?xml version="1.0" encoding="utf-8"?>
<!-- Generator: Adobe Illustrator 26.0.1, SVG Export Plug-In . SVG Version: 6.00 Build 0)  -->
<svg version="1.1" xmlns="http://www.w3.org/2000/svg" xmlns:xlink="http://www.w3.org/1999/xlink" x="0px" y="0px"
	 viewBox="0 0 1366 520" style="enable-background:new 0 0 1366 520;" xml:space="preserve">
<style type="text/css">
	.st0{fill:url(#SVGID_1_);}
	.st1{fill:#FFFFFF;}
	.st2{opacity:0.4;fill:#7373A7;}
	.st3{opacity:0.1;}
	.st4{fill:#7373A7;}
	.st5{opacity:0.4;}
	
		.st6{opacity:0.15;clip-path:url(#SVGID_00000031202359174601238450000005446800441842860426_);fill:url(#SVGID_00000026844949247185242340000009837467251677867698_);}
	
		.st7{opacity:0.15;clip-path:url(#SVGID_00000031202359174601238450000005446800441842860426_);fill:url(#SVGID_00000023983477183193872380000004493771178730555776_);}
	
		.st8{opacity:0.1;clip-path:url(#SVGID_00000031202359174601238450000005446800441842860426_);fill:url(#SVGID_00000138570171409037800880000016597898086299418013_);}
	
		.st9{opacity:0.1;clip-path:url(#SVGID_00000031202359174601238450000005446800441842860426_);fill:url(#SVGID_00000030446213021024578160000016932187676255925920_);}
	.st10{fill:url(#SVGID_00000100365685209906771040000013194720479341095062_);}
	.st11{fill:#E6E6E6;}
	.st12{fill:url(#SVGID_00000052105709042310983450000009751127790723168396_);}
	.st13{fill:url(#SVGID_00000059294613747874652420000002011537604963620754_);}
	.st14{fill:url(#SVGID_00000133519110833612206890000007424093562650210709_);}
	.st15{fill:url(#SVGID_00000048463631685300650900000005435924415275473303_);}
	.st16{fill:url(#SVGID_00000173863699830958842980000007419941428201047475_);}
	.st17{fill:url(#SVGID_00000038379380696578160150000006243927935865209228_);}
	.st18{fill:url(#SVGID_00000160192728921140515060000007148397322066567318_);}
	.st19{fill:url(#SVGID_00000117661607334134051930000018185910638180818829_);}
	.st20{fill:url(#SVGID_00000088121274643326029610000016363179792658213292_);}
	.st21{fill:url(#SVGID_00000102513376618758982250000000231975464528201105_);}
	.st22{fill:url(#SVGID_00000052088208411535357490000008803341826112894137_);}
	.st23{fill:url(#SVGID_00000042700878072268071980000001970779235384431293_);}
	.st24{fill:url(#SVGID_00000081635851749804174810000018204695426292772994_);}
	.st25{fill:url(#SVGID_00000098929154922328895110000018160944585260700066_);}
	.st26{fill:url(#SVGID_00000120516435235348482640000010165794471893666469_);}
	.st27{fill:url(#SVGID_00000131337420001916143070000015713338835776193668_);}
	.st28{fill:url(#SVGID_00000098907111675595742800000017046840378067847598_);}
	.st29{fill:url(#SVGID_00000024720770909337845770000014096647712204265350_);}
	.st30{fill:url(#SVGID_00000039128435505285447230000007284847415806544827_);}
	.st31{fill:url(#SVGID_00000013874064215186327260000002262637047605057925_);}
	.st32{fill:url(#SVGID_00000132781096589667069550000009336704372354757526_);}
	.st33{fill:url(#SVGID_00000142144210690171944230000002125449034086648449_);}
	.st34{fill:url(#SVGID_00000070118879558406322080000015925123929221998521_);}
	.st35{fill:url(#SVGID_00000152953380451770656860000005641357392925792165_);}
	.st36{fill:url(#SVGID_00000003090815963368673980000011585038701612206723_);}
	.st37{fill:url(#SVGID_00000067947220669596667820000010965607761064663947_);}
	.st38{fill:url(#SVGID_00000035520553672283896840000003256038626131780011_);}
	.st39{fill:url(#SVGID_00000000901544542766669170000003046449605529715881_);}
	.st40{fill:url(#SVGID_00000180365101661974224470000011088359137770110096_);}
	.st41{fill:url(#SVGID_00000052806199956578248710000005845072454814185879_);}
	.st42{fill:url(#SVGID_00000037691160153228089400000009706997859847210884_);}
	.st43{fill:url(#SVGID_00000116929602049866047220000003048372458815972245_);}
	.st44{fill:url(#SVGID_00000094614113195479469180000008466486826421780626_);}
</style>
<g id="Background">
	<g>
		<linearGradient id="SVGID_1_" gradientUnits="userSpaceOnUse" x1="683" y1="473" x2="683" y2="-9.094947e-13">
			<stop  offset="0" style="stop-color:#4A26AE"/>
			<stop  offset="0.7346" style="stop-color:#4A267A"/>
			<stop  offset="1" style="stop-color:#1C0936"/>
		</linearGradient>
		<rect class="st0" width="1366" height="473"/>
	</g>
</g>
<g id="Stars">
	<circle class="st1" cx="29.35" cy="63.97" r="0.87"/>
	<circle class="st1" cx="196.59" cy="93.78" r="1.74"/>
	<circle class="st1" cx="273.32" cy="16.5" r="2.03"/>
	<circle class="st1" cx="1323.39" cy="18.2" r="1.74"/>
	<circle class="st1" cx="991.2" cy="121.59" r="0.87"/>
	<circle class="st1" cx="561.5" cy="28.37" r="1.74"/>
	<circle class="st1" cx="693.74" cy="109.99" r="1.74"/>
	<circle class="st1" cx="888.33" cy="29.97" r="0.87"/>
	<circle class="st1" cx="1258.42" cy="89.67" r="1.74"/>
	<circle class="st1" cx="1205.84" cy="123.04" r="1.74"/>
</g>
<g id="Clouds">
	<path class="st2" d="M452.58,153.55c0.84-1.26,1.32-2.74,1.32-4.33c0-4.52-3.9-8.18-8.71-8.18c-2.26,0-4.32,0.81-5.87,2.13
		c-2.17-3.31-6.06-5.52-10.51-5.52c-2.47,0-4.77,0.68-6.7,1.86c-1.15-9.85-10.04-17.52-20.84-17.52c-7.53,0-14.13,3.73-17.83,9.32
		c-1.65-0.77-3.52-1.21-5.49-1.21c-6.81,0-12.32,5.18-12.32,11.57c0,1.94,0.51,3.78,1.41,5.38c-0.47-0.04-0.94-0.06-1.41-0.06
		c-9.12,0-16.51,6.94-16.51,15.5c0,8.56,7.39,15.5,16.51,15.5c9.12,0,76.73,0,84.01,0s13.18-5.54,13.18-12.38
		C462.84,159.73,458.45,154.8,452.58,153.55z"/>
	<path class="st2" d="M1129.94,84.9c0.84-1.13,1.32-2.48,1.32-3.91c0-4.08-3.9-7.4-8.71-7.4c-2.26,0-4.32,0.73-5.87,1.93
		c-2.17-2.99-6.06-4.99-10.51-4.99c-2.47,0-4.77,0.62-6.7,1.68c-1.15-8.91-10.04-15.84-20.84-15.84c-7.53,0-14.13,3.37-17.83,8.43
		c-1.65-0.7-3.52-1.09-5.49-1.09c-6.81,0-12.32,4.68-12.32,10.46c0,1.76,0.51,3.41,1.41,4.87c-0.47-0.03-0.94-0.05-1.41-0.05
		c-9.12,0-16.51,6.27-16.51,14.01c0,7.74,7.39,14.01,16.51,14.01c9.12,0,76.73,0,84.01,0c7.28,0,13.18-5.01,13.18-11.19
		C1140.2,90.48,1135.81,86.03,1129.94,84.9z"/>
	<g class="st3">
		<path class="st4" d="M916.2,117.12c0,1.43-4.5,2.6-10,2.6h-37.28c-5.5,0-10-1.17-10-2.6c0-1.43,4.5-2.6,10-2.6h37.28
			C911.7,114.51,916.2,115.68,916.2,117.12z"/>
	</g>
	<g class="st3">
		<path class="st4" d="M824.28,33.29c0,1.43-4.5,2.6-10,2.6H777c-5.5,0-10-1.17-10-2.6s4.5-2.6,10-2.6h37.28
			C819.78,30.68,824.28,31.85,824.28,33.29z"/>
	</g>
	<g class="st5">
		<path class="st4" d="M1179.93,176.09c0,2.87-4.5,5.21-10,5.21h-74.05c-5.5,0-10-2.34-10-5.21c0-2.87,4.5-5.21,10-5.21h74.05
			C1175.43,170.88,1179.93,173.22,1179.93,176.09z"/>
	</g>
	<g class="st5">
		<path class="st4" d="M675.35,76.41c0,2.87-4.5,5.21-10,5.21H591.3c-5.5,0-10-2.34-10-5.21s4.5-5.21,10-5.21h74.05
			C670.85,71.2,675.35,73.55,675.35,76.41z"/>
	</g>
	<g class="st5">
		<path class="st4" d="M920.04,192.19c0,2.87-4.5,5.21-10,5.21h-74.05c-5.5,0-10-2.34-10-5.21c0-2.87,4.5-5.21,10-5.21h74.05
			C915.54,186.98,920.04,189.32,920.04,192.19z"/>
	</g>
	<g class="st3">
		<path class="st4" d="M587.87,170.75c0,1.43-4.5,2.6-10,2.6h-37.28c-5.5,0-10-1.17-10-2.6c0-1.43,4.5-2.6,10-2.6h37.28
			C583.37,168.14,587.87,169.32,587.87,170.75z"/>
	</g>
	<g class="st3">
		<path class="st4" d="M295.6,81.33c0,1.11-4.5,2.03-10,2.03h-13.94c-5.5,0-10-0.91-10-2.03c0-1.11,4.5-2.03,10-2.03h13.94
			C291.1,79.31,295.6,80.22,295.6,81.33z"/>
	</g>
	<g class="st3">
		<path class="st4" d="M427.13,30.39c0,1.43-4.5,2.6-10,2.6h-37.28c-5.5,0-10-1.17-10-2.6s4.5-2.6,10-2.6h37.28
			C422.63,27.79,427.13,28.96,427.13,30.39z"/>
	</g>
	<g class="st5">
		<path class="st4" d="M507.93,82.91c0,1.43-4.5,2.6-10,2.6h-68.4c-5.5,0-10-1.17-10-2.6c0-1.43,4.5-2.6,10-2.6h68.4
			C503.43,80.3,507.93,81.48,507.93,82.91z"/>
	</g>
	<g class="st5">
		<path class="st4" d="M235.49,36.18c0,1.43-4.5,2.6-10,2.6H30.51c-5.5,0-10-1.17-10-2.6s4.5-2.6,10-2.6h194.98
			C230.99,33.58,235.49,34.75,235.49,36.18z"/>
	</g>
	<g class="st5">
		<path class="st4" d="M358.54,214.62c0,1.35-4.5,2.46-10,2.46h-94.21c-5.5,0-10-1.11-10-2.46s4.5-2.46,10-2.46h94.21
			C354.04,212.16,358.54,213.27,358.54,214.62z"/>
	</g>
	<g class="st5">
		<path class="st4" d="M1219.62,36.28c0,1.43-4.5,2.6-10,2.6h-108.71c-5.5,0-10-1.17-10-2.6s4.5-2.6,10-2.6h108.71
			C1215.12,33.68,1219.62,34.85,1219.62,36.28z"/>
	</g>
	<g class="st5">
		<path class="st4" d="M181.04,134.3c0,2.87-4.5,5.21-10,5.21H30.51c-5.5,0-10-2.34-10-5.21c0-2.87,4.5-5.21,10-5.21h140.53
			C176.54,129.09,181.04,131.43,181.04,134.3z"/>
	</g>
	<g class="st5">
		<path class="st4" d="M1346.32,227.5c0,2.87-4.5,5.21-10,5.21h-74.05c-5.5,0-10-2.34-10-5.21c0-2.87,4.5-5.21,10-5.21h74.05
			C1341.82,222.29,1346.32,224.63,1346.32,227.5z"/>
	</g>
</g>
<g id="Moon_light">
	<g>
		<defs>
			<rect id="SVGID_00000181765759022106473490000017136354246836191141_" x="946" y="285" width="374" height="188"/>
		</defs>
		<clipPath id="SVGID_00000158740114318307709950000014952414572377652123_">
			<use xlink:href="#SVGID_00000181765759022106473490000017136354246836191141_"  style="overflow:visible;"/>
		</clipPath>
		
			<linearGradient id="SVGID_00000058578368375462195480000013429790518518063779_" gradientUnits="userSpaceOnUse" x1="1006" y1="433" x2="1302" y2="433">
			<stop  offset="0.8156" style="stop-color:#FFFFFF"/>
			<stop  offset="1" style="stop-color:#FFFFFF"/>
		</linearGradient>
		
			<circle style="opacity:0.15;clip-path:url(#SVGID_00000158740114318307709950000014952414572377652123_);fill:url(#SVGID_00000058578368375462195480000013429790518518063779_);" cx="1154" cy="433" r="148"/>
		
			<linearGradient id="SVGID_00000012451944059344517000000017340519058766881725_" gradientUnits="userSpaceOnUse" x1="1027" y1="433" x2="1281" y2="433">
			<stop  offset="0.8156" style="stop-color:#FFFFFF"/>
			<stop  offset="1" style="stop-color:#FFFFFF"/>
		</linearGradient>
		
			<circle style="opacity:0.15;clip-path:url(#SVGID_00000158740114318307709950000014952414572377652123_);fill:url(#SVGID_00000012451944059344517000000017340519058766881725_);" cx="1154" cy="433" r="127"/>
		
			<linearGradient id="SVGID_00000152228056375873032180000001934561179439810487_" gradientUnits="userSpaceOnUse" x1="1040" y1="432.7" x2="1268" y2="432.7">
			<stop  offset="0.8156" style="stop-color:#FFFFFF"/>
			<stop  offset="1" style="stop-color:#FFFFFF"/>
		</linearGradient>
		
			<path style="opacity:0.1;clip-path:url(#SVGID_00000158740114318307709950000014952414572377652123_);fill:url(#SVGID_00000152228056375873032180000001934561179439810487_);" d="
			M1143.54,545.93C1085.48,540.66,1040,491.98,1040,432.7c0-62.79,51.04-113.7,114-113.7s114,50.91,114,113.7
			s-51.04,113.7-114,113.7C1150.47,546.4,1146.99,546.24,1143.54,545.93"/>
		
			<linearGradient id="SVGID_00000114782780971397426950000013389095442210958220_" gradientUnits="userSpaceOnUse" x1="1050.4" y1="432.65" x2="1257" y2="432.65">
			<stop  offset="0.8156" style="stop-color:#FFFFFF"/>
			<stop  offset="1" style="stop-color:#FFFFFF"/>
		</linearGradient>
		
			<ellipse style="opacity:0.1;clip-path:url(#SVGID_00000158740114318307709950000014952414572377652123_);fill:url(#SVGID_00000114782780971397426950000013389095442210958220_);" cx="1153.7" cy="432.65" rx="103.3" ry="107.65"/>
	</g>
</g>
<g id="Moon">
	
		<linearGradient id="SVGID_00000116936460133621486430000005701784325462288266_" gradientUnits="userSpaceOnUse" x1="1072" y1="433" x2="1236" y2="433">
		<stop  offset="0.8156" style="stop-color:#FFFFFF"/>
		<stop  offset="1" style="stop-color:#FFFFFF"/>
	</linearGradient>
	<circle style="fill:url(#SVGID_00000116936460133621486430000005701784325462288266_);" cx="1154" cy="433" r="82"/>
	<circle class="st11" cx="1112" cy="388" r="8"/>
	<circle class="st11" cx="1193.5" cy="400.5" r="4.5"/>
	<circle class="st11" cx="1091" cy="439" r="4"/>
	<circle class="st11" cx="1176" cy="446" r="9"/>
	<g id="Layer_4">
	</g>
</g>
<g id="Building">
	<g>
		
			<linearGradient id="SVGID_00000153693693079276632910000015060653590691829137_" gradientUnits="userSpaceOnUse" x1="417.8" y1="322.0448" x2="1051.4" y2="322.0448">
			<stop  offset="0" style="stop-color:#4A2684"/>
			<stop  offset="1" style="stop-color:#1D0A38"/>
		</linearGradient>
		<polygon style="fill:url(#SVGID_00000153693693079276632910000015060653590691829137_);" points="465.42,301.73 429.44,301.73 
			416.9,342.36 477.95,342.36 		"/>
		
			<linearGradient id="SVGID_00000137123228291649837630000007626401558865609864_" gradientUnits="userSpaceOnUse" x1="417.8" y1="362.6738" x2="1051.4" y2="362.6738">
			<stop  offset="0" style="stop-color:#4A2684"/>
			<stop  offset="1" style="stop-color:#1D0A38"/>
		</linearGradient>
		
			<rect x="482.37" y="348.06" style="fill:url(#SVGID_00000137123228291649837630000007626401558865609864_);" width="206.7" height="29.22"/>
		
			<linearGradient id="SVGID_00000074401577256257805770000010022036782957622405_" gradientUnits="userSpaceOnUse" x1="417.8" y1="427.8942" x2="1051.4" y2="427.8942">
			<stop  offset="0" style="stop-color:#4A2684"/>
			<stop  offset="1" style="stop-color:#1D0A38"/>
		</linearGradient>
		
			<rect x="482.37" y="382.99" style="fill:url(#SVGID_00000074401577256257805770000010022036782957622405_);" width="206.7" height="89.81"/>
		
			<linearGradient id="SVGID_00000004510000269844247670000016264676557481759913_" gradientUnits="userSpaceOnUse" x1="417.8" y1="411.8564" x2="1051.4" y2="411.8564">
			<stop  offset="0" style="stop-color:#4A2684"/>
			<stop  offset="1" style="stop-color:#1D0A38"/>
		</linearGradient>
		
			<rect x="995.8" y="350.91" style="fill:url(#SVGID_00000004510000269844247670000016264676557481759913_);" width="61.05" height="121.89"/>
		
			<linearGradient id="SVGID_00000044864396557815718550000015641415805381934491_" gradientUnits="userSpaceOnUse" x1="417.8" y1="411.8564" x2="1051.4" y2="411.8564">
			<stop  offset="0" style="stop-color:#4A2684"/>
			<stop  offset="1" style="stop-color:#1D0A38"/>
		</linearGradient>
		
			<rect x="416.9" y="350.91" style="fill:url(#SVGID_00000044864396557815718550000015641415805381934491_);" width="61.05" height="121.89"/>
		
			<linearGradient id="SVGID_00000024697743861586091550000010959619056906009730_" gradientUnits="userSpaceOnUse" x1="417.8" y1="289.2564" x2="1051.4" y2="289.2564">
			<stop  offset="0" style="stop-color:#4A2684"/>
			<stop  offset="1" style="stop-color:#1D0A38"/>
		</linearGradient>
		
			<rect x="431.61" y="283.91" style="fill:url(#SVGID_00000024697743861586091550000010959619056906009730_);" width="31.63" height="10.69"/>
		
			<linearGradient id="SVGID_00000163791587155972613610000008701299082020099245_" gradientUnits="userSpaceOnUse" x1="417.8" y1="326.179" x2="1051.4" y2="326.179">
			<stop  offset="0" style="stop-color:#4A2684"/>
			<stop  offset="1" style="stop-color:#1D0A38"/>
		</linearGradient>
		<polygon style="fill:url(#SVGID_00000163791587155972613610000008701299082020099245_);" points="528.91,309.21 498.87,309.21 
			488.4,343.14 539.37,343.14 		"/>
		
			<linearGradient id="SVGID_00000123425451021702009650000002596977887569946811_" gradientUnits="userSpaceOnUse" x1="417.8" y1="299.1746" x2="1051.4" y2="299.1746">
			<stop  offset="0" style="stop-color:#4A2684"/>
			<stop  offset="1" style="stop-color:#1D0A38"/>
		</linearGradient>
		
			<rect x="499.92" y="294.25" style="fill:url(#SVGID_00000123425451021702009650000002596977887569946811_);" width="27.93" height="9.86"/>
		
			<linearGradient id="SVGID_00000072266274681199538080000005462456382380462508_" gradientUnits="userSpaceOnUse" x1="417.8" y1="356.9715" x2="1051.4" y2="356.9715">
			<stop  offset="0" style="stop-color:#4A2684"/>
			<stop  offset="1" style="stop-color:#1D0A38"/>
		</linearGradient>
		
			<rect x="695.68" y="241.14" style="fill:url(#SVGID_00000072266274681199538080000005462456382380462508_);" width="82.38" height="231.66"/>
		
			<linearGradient id="SVGID_00000102507235838780479100000003865995558482680218_" gradientUnits="userSpaceOnUse" x1="417.8" y1="206.2163" x2="1051.4" y2="206.2163">
			<stop  offset="0" style="stop-color:#4A2684"/>
			<stop  offset="1" style="stop-color:#1D0A38"/>
		</linearGradient>
		<polygon style="fill:url(#SVGID_00000102507235838780479100000003865995558482680218_);" points="760.5,176.28 713.25,176.28 
			695.68,236.15 778.07,236.15 		"/>
		
			<linearGradient id="SVGID_00000088120186411463916240000004081319410067972263_" gradientUnits="userSpaceOnUse" x1="417.8" y1="161.3105" x2="1051.4" y2="161.3105">
			<stop  offset="0" style="stop-color:#4A2684"/>
			<stop  offset="1" style="stop-color:#1D0A38"/>
		</linearGradient>
		
			<rect x="716.28" y="151.33" style="fill:url(#SVGID_00000088120186411463916240000004081319410067972263_);" width="41.19" height="19.96"/>
		
			<linearGradient id="SVGID_00000172398970716794449010000017231966874786820792_" gradientUnits="userSpaceOnUse" x1="417.8" y1="362.6738" x2="1051.4" y2="362.6738">
			<stop  offset="0" style="stop-color:#4A2684"/>
			<stop  offset="1" style="stop-color:#1D0A38"/>
		</linearGradient>
		
			<rect x="784.69" y="348.06" style="fill:url(#SVGID_00000172398970716794449010000017231966874786820792_);" width="206.7" height="29.22"/>
		
			<linearGradient id="SVGID_00000157267563843660677600000013066589845424652179_" gradientUnits="userSpaceOnUse" x1="417.8" y1="427.8942" x2="1051.4" y2="427.8942">
			<stop  offset="0" style="stop-color:#4A2684"/>
			<stop  offset="1" style="stop-color:#1D0A38"/>
		</linearGradient>
		
			<rect x="784.69" y="382.99" style="fill:url(#SVGID_00000157267563843660677600000013066589845424652179_);" width="206.7" height="89.81"/>
		
			<linearGradient id="SVGID_00000132064795180232365400000002495433972387171202_" gradientUnits="userSpaceOnUse" x1="417.8" y1="322.1161" x2="1051.4" y2="322.1161">
			<stop  offset="0" style="stop-color:#4A2684"/>
			<stop  offset="1" style="stop-color:#1D0A38"/>
		</linearGradient>
		<polygon style="fill:url(#SVGID_00000132064795180232365400000002495433972387171202_);" points="1044.46,301.8 1008.48,301.8 
			995.95,342.43 1057,342.43 		"/>
		
			<linearGradient id="SVGID_00000146473253188122789340000012324504215441868683_" gradientUnits="userSpaceOnUse" x1="417.8" y1="289.3277" x2="1051.4" y2="289.3277">
			<stop  offset="0" style="stop-color:#4A2684"/>
			<stop  offset="1" style="stop-color:#1D0A38"/>
		</linearGradient>
		
			<rect x="1010.66" y="283.98" style="fill:url(#SVGID_00000146473253188122789340000012324504215441868683_);" width="31.63" height="10.69"/>
		
			<linearGradient id="SVGID_00000041263333836955719090000001311464718595003545_" gradientUnits="userSpaceOnUse" x1="417.8" y1="325.68" x2="1051.4" y2="325.68">
			<stop  offset="0" style="stop-color:#4A2684"/>
			<stop  offset="1" style="stop-color:#1D0A38"/>
		</linearGradient>
		<polygon style="fill:url(#SVGID_00000041263333836955719090000001311464718595003545_);" points="976.03,308.72 945.99,308.72 
			935.52,342.64 986.49,342.64 		"/>
		
			<linearGradient id="SVGID_00000088096976984223374150000013282987107745163167_" gradientUnits="userSpaceOnUse" x1="417.8" y1="298.6757" x2="1051.4" y2="298.6757">
			<stop  offset="0" style="stop-color:#4A2684"/>
			<stop  offset="1" style="stop-color:#1D0A38"/>
		</linearGradient>
		
			<rect x="947.04" y="293.75" style="fill:url(#SVGID_00000088096976984223374150000013282987107745163167_);" width="27.93" height="9.86"/>
		
			<linearGradient id="SVGID_00000019646551046264983560000010244162791781634438_" gradientUnits="userSpaceOnUse" x1="417.8" y1="278.2081" x2="1051.4" y2="278.2081">
			<stop  offset="0" style="stop-color:#4A2684"/>
			<stop  offset="1" style="stop-color:#1D0A38"/>
		</linearGradient>
		
			<rect x="434.55" y="272.51" style="fill:url(#SVGID_00000019646551046264983560000010244162791781634438_);" width="6.62" height="11.4"/>
		
			<linearGradient id="SVGID_00000175300041993785053930000003506781472612705410_" gradientUnits="userSpaceOnUse" x1="417.8" y1="278.2081" x2="1051.4" y2="278.2081">
			<stop  offset="0" style="stop-color:#4A2684"/>
			<stop  offset="1" style="stop-color:#1D0A38"/>
		</linearGradient>
		
			<rect x="453.68" y="272.51" style="fill:url(#SVGID_00000175300041993785053930000003506781472612705410_);" width="6.62" height="11.4"/>
		
			<linearGradient id="SVGID_00000175290078814232141080000004868849303130914455_" gradientUnits="userSpaceOnUse" x1="417.8" y1="273.2186" x2="1051.4" y2="273.2186">
			<stop  offset="0" style="stop-color:#4A2684"/>
			<stop  offset="1" style="stop-color:#1D0A38"/>
		</linearGradient>
		
			<rect x="445.59" y="262.53" style="fill:url(#SVGID_00000175290078814232141080000004868849303130914455_);" width="3.68" height="21.38"/>
		
			<linearGradient id="SVGID_00000164480497107143946280000015590294013655022762_" gradientUnits="userSpaceOnUse" x1="417.8" y1="288.8525" x2="1051.4" y2="288.8525">
			<stop  offset="0" style="stop-color:#4A2684"/>
			<stop  offset="1" style="stop-color:#1D0A38"/>
		</linearGradient>
		
			<rect x="502.96" y="283.82" style="fill:url(#SVGID_00000164480497107143946280000015590294013655022762_);" width="5.77" height="10.07"/>
		
			<linearGradient id="SVGID_00000165206692279258072550000012432970688080909700_" gradientUnits="userSpaceOnUse" x1="417.8" y1="288.8525" x2="1051.4" y2="288.8525">
			<stop  offset="0" style="stop-color:#4A2684"/>
			<stop  offset="1" style="stop-color:#1D0A38"/>
		</linearGradient>
		
			<rect x="519.63" y="283.82" style="fill:url(#SVGID_00000165206692279258072550000012432970688080909700_);" width="5.77" height="10.07"/>
		
			<linearGradient id="SVGID_00000102520598345621064410000008135234489912528540_" gradientUnits="userSpaceOnUse" x1="417.8" y1="284.4451" x2="1051.4" y2="284.4451">
			<stop  offset="0" style="stop-color:#4A2684"/>
			<stop  offset="1" style="stop-color:#1D0A38"/>
		</linearGradient>
		
			<rect x="512.58" y="275" style="fill:url(#SVGID_00000102520598345621064410000008135234489912528540_);" width="3.21" height="18.89"/>
		
			<linearGradient id="SVGID_00000088133314216491549230000003226185621812978610_" gradientUnits="userSpaceOnUse" x1="417.8" y1="278.2081" x2="1051.4" y2="278.2081">
			<stop  offset="0" style="stop-color:#4A2684"/>
			<stop  offset="1" style="stop-color:#1D0A38"/>
		</linearGradient>
		
			<rect x="1013.45" y="272.51" style="fill:url(#SVGID_00000088133314216491549230000003226185621812978610_);" width="6.62" height="11.4"/>
		
			<linearGradient id="SVGID_00000145778737913213319560000005590920782674586267_" gradientUnits="userSpaceOnUse" x1="417.8" y1="278.2081" x2="1051.4" y2="278.2081">
			<stop  offset="0" style="stop-color:#4A2684"/>
			<stop  offset="1" style="stop-color:#1D0A38"/>
		</linearGradient>
		
			<rect x="1032.58" y="272.51" style="fill:url(#SVGID_00000145778737913213319560000005590920782674586267_);" width="6.62" height="11.4"/>
		
			<linearGradient id="SVGID_00000165955317232551898900000016202216441250146742_" gradientUnits="userSpaceOnUse" x1="417.8" y1="273.2186" x2="1051.4" y2="273.2186">
			<stop  offset="0" style="stop-color:#4A2684"/>
			<stop  offset="1" style="stop-color:#1D0A38"/>
		</linearGradient>
		
			<rect x="1024.49" y="262.53" style="fill:url(#SVGID_00000165955317232551898900000016202216441250146742_);" width="3.68" height="21.38"/>
		
			<linearGradient id="SVGID_00000034079706397129767250000017081196061085823401_" gradientUnits="userSpaceOnUse" x1="417.8" y1="288.8168" x2="1051.4" y2="288.8168">
			<stop  offset="0" style="stop-color:#4A2684"/>
			<stop  offset="1" style="stop-color:#1D0A38"/>
		</linearGradient>
		
			<rect x="949.79" y="283.78" style="fill:url(#SVGID_00000034079706397129767250000017081196061085823401_);" width="5.77" height="10.07"/>
		
			<linearGradient id="SVGID_00000140004486335442504550000006419896390150474881_" gradientUnits="userSpaceOnUse" x1="417.8" y1="288.8168" x2="1051.4" y2="288.8168">
			<stop  offset="0" style="stop-color:#4A2684"/>
			<stop  offset="1" style="stop-color:#1D0A38"/>
		</linearGradient>
		
			<rect x="966.46" y="283.78" style="fill:url(#SVGID_00000140004486335442504550000006419896390150474881_);" width="5.77" height="10.07"/>
		
			<linearGradient id="SVGID_00000039131642768154718280000006674315928880932028_" gradientUnits="userSpaceOnUse" x1="417.8" y1="284.4094" x2="1051.4" y2="284.4094">
			<stop  offset="0" style="stop-color:#4A2684"/>
			<stop  offset="1" style="stop-color:#1D0A38"/>
		</linearGradient>
		
			<rect x="959.4" y="274.96" style="fill:url(#SVGID_00000039131642768154718280000006674315928880932028_);" width="3.21" height="18.89"/>
		
			<linearGradient id="SVGID_00000082367439975689637730000010741768149097943198_" gradientUnits="userSpaceOnUse" x1="417.8" y1="141.7087" x2="1051.4" y2="141.7087">
			<stop  offset="0" style="stop-color:#4A2684"/>
			<stop  offset="1" style="stop-color:#1D0A38"/>
		</linearGradient>
		
			<rect x="752.32" y="132.09" style="fill:url(#SVGID_00000082367439975689637730000010741768149097943198_);" width="3.68" height="19.25"/>
		
			<linearGradient id="SVGID_00000122690618198744460090000000475023855705072513_" gradientUnits="userSpaceOnUse" x1="417.8" y1="141.7087" x2="1051.4" y2="141.7087">
			<stop  offset="0" style="stop-color:#4A2684"/>
			<stop  offset="1" style="stop-color:#1D0A38"/>
		</linearGradient>
		
			<rect x="717.75" y="132.09" style="fill:url(#SVGID_00000122690618198744460090000000475023855705072513_);" width="3.68" height="19.25"/>
		
			<linearGradient id="SVGID_00000176731853256851945730000006725418896128312740_" gradientUnits="userSpaceOnUse" x1="417.8" y1="128.1657" x2="1051.4" y2="128.1657">
			<stop  offset="0" style="stop-color:#4A2684"/>
			<stop  offset="1" style="stop-color:#1D0A38"/>
		</linearGradient>
		
			<rect x="733.93" y="105" style="fill:url(#SVGID_00000176731853256851945730000006725418896128312740_);" width="3.68" height="46.33"/>
	</g>
	<ellipse class="st1" cx="736.14" cy="240.43" rx="19.86" ry="19.25"/>
</g>
<g id="Ground">
	<g>
		
			<linearGradient id="SVGID_00000040545062749449786190000015885003928073749951_" gradientUnits="userSpaceOnUse" x1="683" y1="520" x2="683" y2="473">
			<stop  offset="0" style="stop-color:#1A0066"/>
			<stop  offset="1" style="stop-color:#000000"/>
		</linearGradient>
		<rect y="473" style="fill:url(#SVGID_00000040545062749449786190000015885003928073749951_);" width="1366" height="47"/>
	</g>
</g>
</svg>
